<?xml version="1.0" encoding="UTF-8" standalone="no"?>
<!-- Created with Inkscape (http://www.inkscape.org/) -->

<svg
   width="210mm"
   height="1000mm"
   viewBox="0 0 210 1000"
   version="1.1"
   id="svg5"
   inkscape:version="1.1.1 (3bf5ae0d25, 2021-09-20)"
   sodipodi:docname="bg.svg"
   xmlns:inkscape="http://www.inkscape.org/namespaces/inkscape"
   xmlns:sodipodi="http://sodipodi.sourceforge.net/DTD/sodipodi-0.dtd"
   xmlns="http://www.w3.org/2000/svg"
   xmlns:svg="http://www.w3.org/2000/svg">
  <sodipodi:namedview
     id="namedview7"
     pagecolor="#ffffff"
     bordercolor="#666666"
     borderopacity="1.0"
     inkscape:pageshadow="2"
     inkscape:pageopacity="0.0"
     inkscape:pagecheckerboard="0"
     inkscape:document-units="mm"
     showgrid="false"
     inkscape:object-paths="true"
     inkscape:zoom="0.70710678"
     inkscape:cx="225.56706"
     inkscape:cy="2839.0337"
     inkscape:window-width="1920"
     inkscape:window-height="1017"
     inkscape:window-x="-8"
     inkscape:window-y="-8"
     inkscape:window-maximized="1"
     inkscape:current-layer="layer1"
     inkscape:snap-global="false" />
  <defs
     id="defs2">
    <inkscape:path-effect
       effect="bspline"
       id="path-effect1583"
       is_visible="true"
       lpeversion="1"
       weight="33.333333"
       steps="2"
       helper_size="0"
       apply_no_weight="true"
       apply_with_weight="true"
       only_selected="false" />
    <inkscape:path-effect
       effect="bspline"
       id="path-effect1428"
       is_visible="true"
       lpeversion="1"
       weight="33.333333"
       steps="2"
       helper_size="0"
       apply_no_weight="true"
       apply_with_weight="true"
       only_selected="false" />
    <inkscape:path-effect
       effect="bspline"
       id="path-effect959"
       is_visible="true"
       lpeversion="1"
       weight="33.333333"
       steps="2"
       helper_size="0"
       apply_no_weight="true"
       apply_with_weight="true"
       only_selected="false" />
    <inkscape:path-effect
       effect="bspline"
       id="path-effect868"
       is_visible="true"
       lpeversion="1"
       weight="33.333333"
       steps="2"
       helper_size="0"
       apply_no_weight="true"
       apply_with_weight="true"
       only_selected="false" />
    <inkscape:path-effect
       effect="bspline"
       id="path-effect5369"
       is_visible="true"
       lpeversion="1"
       weight="33.333333"
       steps="2"
       helper_size="0"
       apply_no_weight="true"
       apply_with_weight="true"
       only_selected="false" />
    <inkscape:path-effect
       effect="bspline"
       id="path-effect5010"
       is_visible="true"
       lpeversion="1"
       weight="33.333333"
       steps="2"
       helper_size="0"
       apply_no_weight="true"
       apply_with_weight="true"
       only_selected="false" />
    <inkscape:path-effect
       effect="bspline"
       id="path-effect3139"
       is_visible="true"
       lpeversion="1"
       weight="33.333333"
       steps="2"
       helper_size="0"
       apply_no_weight="true"
       apply_with_weight="true"
       only_selected="false" />
    <inkscape:path-effect
       effect="bspline"
       id="path-effect3133"
       is_visible="true"
       lpeversion="1"
       weight="33.333333"
       steps="2"
       helper_size="0"
       apply_no_weight="true"
       apply_with_weight="true"
       only_selected="false" />
    <inkscape:path-effect
       effect="bspline"
       id="path-effect1388"
       is_visible="true"
       lpeversion="1"
       weight="33.333333"
       steps="2"
       helper_size="0"
       apply_no_weight="true"
       apply_with_weight="true"
       only_selected="false" />
    <inkscape:path-effect
       effect="bspline"
       id="path-effect1382"
       is_visible="true"
       lpeversion="1"
       weight="33.333333"
       steps="2"
       helper_size="0"
       apply_no_weight="true"
       apply_with_weight="true"
       only_selected="false" />
    <inkscape:path-effect
       effect="bspline"
       id="path-effect1047"
       is_visible="true"
       lpeversion="1"
       weight="33.333333"
       steps="2"
       helper_size="0"
       apply_no_weight="true"
       apply_with_weight="true"
       only_selected="false" />
    <inkscape:path-effect
       effect="bspline"
       id="path-effect1503"
       is_visible="true"
       lpeversion="1"
       weight="33.333333"
       steps="2"
       helper_size="0"
       apply_no_weight="true"
       apply_with_weight="true"
       only_selected="false" />
    <inkscape:path-effect
       effect="bspline"
       id="path-effect1366"
       is_visible="true"
       lpeversion="1"
       weight="33.333333"
       steps="2"
       helper_size="0"
       apply_no_weight="true"
       apply_with_weight="true"
       only_selected="false" />
    <inkscape:path-effect
       effect="bspline"
       id="path-effect1181"
       is_visible="true"
       lpeversion="1"
       weight="33.333333"
       steps="2"
       helper_size="0"
       apply_no_weight="true"
       apply_with_weight="true"
       only_selected="false" />
    <inkscape:path-effect
       effect="bspline"
       id="path-effect147"
       is_visible="true"
       lpeversion="1"
       weight="33.333333"
       steps="2"
       helper_size="0"
       apply_no_weight="true"
       apply_with_weight="true"
       only_selected="false" />
    <filter
       inkscape:collect="always"
       style="color-interpolation-filters:sRGB"
       id="filter1505"
       x="-0.034111992"
       y="-0.029986122"
       width="1.068224"
       height="1.0599723">
      <feGaussianBlur
         inkscape:collect="always"
         stdDeviation="1.7585225"
         id="feGaussianBlur1507" />
    </filter>
  </defs>
  <g
     inkscape:label="Слой 1"
     inkscape:groupmode="layer"
     id="layer1"
     style="display:inline">
    <path
       style="display:inline;opacity:0.2;fill:none;stroke:#1d8eea;stroke-width:1.36671;stroke-linecap:round;stroke-linejoin:round;stroke-miterlimit:4;stroke-dasharray:none;stroke-opacity:1;filter:url(#filter1505)"
       d="m 91.157485,224.02198 108.649825,74.33935 28.23467,-38.95668 -100.07221,-70.05054 -45.389895,65.40433 43.960285,34.31047 59.68593,-98.64259 41.81589,28.23465 -66.11914,103.28881 -36.81228,-33.59567 -25.732853,41.10109 41.458483,25.37545 20.72925,-33.23827"
       id="path1242"
       transform="matrix(1.2831299,0,0,0.89547416,-0.84609249,40.611508)" />
    <path
       style="display:inline;opacity:0.2;fill:none;stroke:#ff7f02;stroke-width:1.465;stroke-linecap:round;stroke-linejoin:round;stroke-miterlimit:4;stroke-dasharray:none;stroke-opacity:1;filter:url(#filter1505)"
       d="m 125.57038,80.74589 108.64982,74.33935 28.23467,-38.95668 -100.07221,-70.05054 -45.38989,65.40433 43.96028,34.31047 59.68593,-98.64259 41.81589,28.23465 -66.11914,103.28881 -36.81228,-33.59567 -25.73285,41.10109 41.45848,25.37545 20.72925,-33.23827"
       id="path2463" />
    <path
       style="display:inline;opacity:0.2;fill:none;stroke:#1d8eea;stroke-width:1.465;stroke-linecap:round;stroke-linejoin:round;stroke-miterlimit:4;stroke-dasharray:none;stroke-opacity:1;filter:url(#filter1505)"
       d="M -8.841442,126.67733 99.808378,201.01668 128.04305,162.06 27.970838,92.00946 l -45.38989,65.40433 43.96028,34.31047 59.68593,-98.64259 41.815892,28.23465 -66.119142,103.28881 -36.81228,-33.59567 -25.73285,41.10109 41.45848,25.37545 20.72925,-33.23827"
       id="path2465"
       transform="matrix(-0.29860512,-0.95437675,-0.95437675,0.29860512,223.78694,175.88482)" />
    <path
       style="display:inline;opacity:0.2;fill:none;stroke:#ff7f02;stroke-width:1.465;stroke-linecap:round;stroke-linejoin:round;stroke-miterlimit:4;stroke-dasharray:none;stroke-opacity:1;filter:url(#filter1505)"
       d="M 53.73284,-28.26133 162.38266,46.07802 190.61733,7.12134 90.54512,-62.9292 45.15523,2.47513 89.11551,36.7856 148.80144,-61.85699 190.61733,-33.62234 124.49819,69.66647 87.68591,36.0708 61.95306,77.17189 l 41.45848,25.37545 20.72925,-33.23827"
       id="path2467"
       transform="rotate(-176.69201,90.607638,16.820768)" />
    <path
       style="display:inline;opacity:0.25;fill:none;stroke:#1d8eea;stroke-width:1.465;stroke-linecap:round;stroke-linejoin:round;stroke-miterlimit:4;stroke-dasharray:none;stroke-opacity:1;filter:url(#filter1505)"
       d="M 53.73284,-28.26133 162.38266,46.07802 190.61733,7.12134 90.54512,-62.9292 45.15523,2.47513 89.11551,36.7856 148.80144,-61.85699 190.61733,-33.62234 124.49819,69.66647 87.68591,36.0708 61.95306,77.17189 l 41.45848,25.37545 20.72925,-33.23827"
       id="path2922"
       transform="rotate(-89.782534,138.81717,-36.908837)" />
    <path
       style="fill:none;stroke:#1d8eea;stroke-width:0.165;stroke-linecap:butt;stroke-linejoin:miter;stroke-miterlimit:4;stroke-dasharray:1.98, 1.98;stroke-dashoffset:0;stroke-opacity:1"
       d="m 134.07296,-97.696224 c -10.60184,11.354435 -21.20358,22.708765 -14.28084,60.286851 6.92273,37.57808676 31.3685,101.377056 25.75528,165.718503 -5.61322,64.34144 -41.28408,129.22174 -38.16521,175.17978 3.11887,45.95805 45.02588,72.99149 41.03385,133.54861 -3.99204,60.55712 -53.88134,154.63354 -54.628908,226.54454 -0.747568,71.91099 47.644188,121.65165 57.403898,168.19988 9.7597,46.54823 -19.11386,89.90003 -26.16053,124.63875 -7.04667,34.73872 7.73321,60.86371 22.51285,86.98821"
       id="path5365"
       inkscape:path-effect="#path-effect5369"
       inkscape:original-d="m 134.07296,-97.696224 c -10.60141,11.354834 -21.20315,22.709164 -31.80508,34.06284 24.44699,63.80208933 48.89277,127.601054 73.33877,191.400724 -35.67203,64.88347 -71.34289,129.76377 -107.014729,194.64481 41.908969,27.03507 83.815979,54.06852 125.723569,81.10195 -49.89102,94.08079 -99.780346,188.1572 -149.670926,282.23496 48.39484,49.74415 96.786596,99.4848 145.180816,149.22768 -28.87419,43.35373 -57.74805,86.70534 -86.6218,130.05707 14.7802,26.12563 29.56008,52.25059 44.33977,78.37509"
       sodipodi:nodetypes="ccccccccc" />
    <g
       transform="matrix(-2.4652456e-4,6.9788334e-5,-6.9783485e-5,-2.4655007e-4,130.64329,2.2426131)"
       id="g6040"
       style="opacity:1;fill:#ff7f02;fill-opacity:1;stroke:none;stroke-width:103.263;stroke-opacity:1">
      <path
         d="m 1421,4739.5 c -31.4,-111.7 -56.8,-209.7 -56.8,-219.5 0,-9.8 39.2,-31.4 88.2,-47 995.7,-321.5 1830.6,-862.4 2381.4,-1542.5 139.2,-172.5 343,-464.5 343,-492 0,-5.9 -62.7,-78.4 -139.2,-158.8 -233.2,-245 -339.1,-537 -299.9,-823.2 l 17.6,-133.3 1232.8,-5.9 c 938.8,-3.9 1236.8,2 1248.5,19.6 31.4,49 39.2,254.8 17.6,388.1 -33.3,198 -135.2,388.1 -295.9,558.6 -74.5,78.4 -135.2,149 -135.2,156.8 0,31.4 219.5,345 356.7,509.6 388.1,464.5 893.8,864.4 1464.1,1154.4 268.5,137.2 403.8,194 727.2,307.7 221.5,76.4 262.6,98 258.7,129.4 -7.8,41.2 -105.8,384.2 -113.7,395.9 -9.8,9.8 -305.8,-90.2 -576.3,-196 C 6899,4335.7 5970,3592.8 5483.9,2777.5 l -78.4,-135.2 -90.2,17.6 c -115.6,19.6 -515.5,19.6 -631.1,0 l -88.2,-17.6 -76.4,125.4 C 3957.3,3689 2963.6,4439.6 1764,4851.2 c -141.1,49 -264.6,88.2 -272.4,88.2 -5.9,0 -39.2,-90.1 -70.6,-199.9 z"
         id="path6036"
         style="fill:#ff7f02;fill-opacity:1;stroke:none;stroke-width:2138.46;stroke-opacity:1" />
      <path
         d="m 1425,2475.7 c -70.6,-94.1 -127.4,-180.3 -127.4,-192.1 0,-9.8 190.1,-154.8 421.4,-319.5 l 419.4,-299.9 V 1066.4 470.6 h 313.6 313.6 v -245 -245 h -441 -441 l -431.2,-539 c -237.2,-296 -439,-539 -448.8,-539 -7.8,0 -168.6,80.4 -352.8,176.4 -184.2,98 -339.1,176.4 -343,176.4 -11.8,0 -207.8,-366.5 -207.8,-388.1 0,-35.3 1021.2,-556.7 1044.7,-535.1 13.7,9.8 231.3,278.3 484.1,597.8 l 460.6,578.2 h 339.1 l 339.1,2 -5.9,-305.7 -5.9,-303.8 -509.6,-282.2 -509.6,-280.3 -5.9,-809.5 -5.9,-811.4 L 1031,-3812 c -382.2,-290 -693.8,-537 -693.8,-546.8 -2,-7.8 56.8,-94.1 129.4,-188.1 l 131.3,-172.5 78.4,56.8 c 45.1,31.4 397.9,301.9 786,601.7 l 705.6,544.9 5.9,786 3.9,787.9 278.3,152.9 c 152.9,84.3 286.2,156.8 294,158.8 9.8,3.9 15.7,-215.6 13.7,-490 -3.9,-546.8 7.8,-646.8 121.5,-972.1 188.2,-533.1 597.8,-989.8 1125,-1254.4 198,-98 493.9,-184.3 646.8,-188.2 l 137.2,-2 5.9,2338.3 3.9,2336.3 h 196 196 v -2344.2 -2346.1 l 145.1,11.7 c 176.4,11.8 509.6,121.5 719.3,233.3 590,313.6 1015.3,889.8 1146.6,1552.3 23.5,121.5 31.4,270.5 29.4,644.8 -2,268.5 3.9,484.1 13.7,480.2 7.9,-2 141.1,-74.5 294,-158.8 l 278.3,-154.8 2,-786 V -3518 l 754.6,-578.2 c 413.6,-317.5 768.3,-588 787.9,-601.7 29.4,-19.6 51,0 166.6,152.9 98,127.4 129.4,182.3 115.6,199.9 -11.8,13.7 -325.4,258.7 -697.8,542.9 l -676.2,519.4 -5.9,809.5 -5.9,809.5 -509.6,282.2 -509.6,280.3 -5.9,305.8 -5.9,305.7 h 335.2 333.2 l 474.3,-595.8 c 262.6,-329.3 482.1,-597.8 488,-597.8 23.5,-3.9 1036.8,531.2 1036.8,546.9 0,31.3 -201.9,393.9 -215.6,388.1 -7.9,-3.9 -170.5,-84.3 -358.7,-182.3 -188.2,-96.1 -346.9,-172.5 -352.8,-166.6 -3.9,5.9 -199.9,250.9 -433.2,544.9 l -427,533 h -439 -439.1 v 245 243 l 309.7,5.9 307.7,5.9 5.9,591.9 3.9,591.9 411.6,297.9 c 227.4,162.7 417.5,303.8 423.3,313.6 13.7,21.6 -237.1,362.6 -264.6,356.7 -9.8,-3.9 -250.9,-170.5 -531.2,-372.4 L 7391.1,1893.5 V 1417.2 941 H 5000 2608.8 v 476.3 476.3 l -503.7,360.6 c -276.4,199.9 -513.5,370.4 -527.2,378.3 -19.7,9.8 -64.7,-35.3 -152.9,-156.8 z"
         id="path6038"
         style="fill:#ff7f02;fill-opacity:1;stroke:none;stroke-width:2138.46;stroke-opacity:1" />
    </g>
    <g
       transform="matrix(4.9919156e-4,1.3131775e-4,1.3131775e-4,-4.9919156e-4,139.80592,151.0679)"
       id="g6428"
       style="opacity:1;fill:#ff7f02;fill-opacity:1;stroke:none;stroke-width:51.2586;stroke-opacity:1">
      <path
         d="m 1421,4739.5 c -31.4,-111.7 -56.8,-209.7 -56.8,-219.5 0,-9.8 39.2,-31.4 88.2,-47 995.7,-321.5 1830.6,-862.4 2381.4,-1542.5 139.2,-172.5 343,-464.5 343,-492 0,-5.9 -62.7,-78.4 -139.2,-158.8 -233.2,-245 -339.1,-537 -299.9,-823.2 l 17.6,-133.3 1232.8,-5.9 c 938.8,-3.9 1236.8,2 1248.5,19.6 31.4,49 39.2,254.8 17.6,388.1 -33.3,198 -135.2,388.1 -295.9,558.6 -74.5,78.4 -135.2,149 -135.2,156.8 0,31.4 219.5,345 356.7,509.6 388.1,464.5 893.8,864.4 1464.1,1154.4 268.5,137.2 403.8,194 727.2,307.7 221.5,76.4 262.6,98 258.7,129.4 -7.8,41.2 -105.8,384.2 -113.7,395.9 -9.8,9.8 -305.8,-90.2 -576.3,-196 C 6899,4335.7 5970,3592.8 5483.9,2777.5 l -78.4,-135.2 -90.2,17.6 c -115.6,19.6 -515.5,19.6 -631.1,0 l -88.2,-17.6 -76.4,125.4 C 3957.3,3689 2963.6,4439.6 1764,4851.2 c -141.1,49 -264.6,88.2 -272.4,88.2 -5.9,0 -39.2,-90.1 -70.6,-199.9 z"
         id="path6424"
         style="fill:#ff7f02;fill-opacity:1;stroke:none;stroke-width:1061.5;stroke-opacity:1" />
      <path
         d="m 1425,2475.7 c -70.6,-94.1 -127.4,-180.3 -127.4,-192.1 0,-9.8 190.1,-154.8 421.4,-319.5 l 419.4,-299.9 V 1066.4 470.6 h 313.6 313.6 v -245 -245 h -441 -441 l -431.2,-539 c -237.2,-296 -439,-539 -448.8,-539 -7.8,0 -168.6,80.4 -352.8,176.4 -184.2,98 -339.1,176.4 -343,176.4 -11.8,0 -207.8,-366.5 -207.8,-388.1 0,-35.3 1021.2,-556.7 1044.7,-535.1 13.7,9.8 231.3,278.3 484.1,597.8 l 460.6,578.2 h 339.1 l 339.1,2 -5.9,-305.7 -5.9,-303.8 -509.6,-282.2 -509.6,-280.3 -5.9,-809.5 -5.9,-811.4 L 1031,-3812 c -382.2,-290 -693.8,-537 -693.8,-546.8 -2,-7.8 56.8,-94.1 129.4,-188.1 l 131.3,-172.5 78.4,56.8 c 45.1,31.4 397.9,301.9 786,601.7 l 705.6,544.9 5.9,786 3.9,787.9 278.3,152.9 c 152.9,84.3 286.2,156.8 294,158.8 9.8,3.9 15.7,-215.6 13.7,-490 -3.9,-546.8 7.8,-646.8 121.5,-972.1 188.2,-533.1 597.8,-989.8 1125,-1254.4 198,-98 493.9,-184.3 646.8,-188.2 l 137.2,-2 5.9,2338.3 3.9,2336.3 h 196 196 v -2344.2 -2346.1 l 145.1,11.7 c 176.4,11.8 509.6,121.5 719.3,233.3 590,313.6 1015.3,889.8 1146.6,1552.3 23.5,121.5 31.4,270.5 29.4,644.8 -2,268.5 3.9,484.1 13.7,480.2 7.9,-2 141.1,-74.5 294,-158.8 l 278.3,-154.8 2,-786 V -3518 l 754.6,-578.2 c 413.6,-317.5 768.3,-588 787.9,-601.7 29.4,-19.6 51,0 166.6,152.9 98,127.4 129.4,182.3 115.6,199.9 -11.8,13.7 -325.4,258.7 -697.8,542.9 l -676.2,519.4 -5.9,809.5 -5.9,809.5 -509.6,282.2 -509.6,280.3 -5.9,305.8 -5.9,305.7 h 335.2 333.2 l 474.3,-595.8 c 262.6,-329.3 482.1,-597.8 488,-597.8 23.5,-3.9 1036.8,531.2 1036.8,546.9 0,31.3 -201.9,393.9 -215.6,388.1 -7.9,-3.9 -170.5,-84.3 -358.7,-182.3 -188.2,-96.1 -346.9,-172.5 -352.8,-166.6 -3.9,5.9 -199.9,250.9 -433.2,544.9 l -427,533 h -439 -439.1 v 245 243 l 309.7,5.9 307.7,5.9 5.9,591.9 3.9,591.9 411.6,297.9 c 227.4,162.7 417.5,303.8 423.3,313.6 13.7,21.6 -237.1,362.6 -264.6,356.7 -9.8,-3.9 -250.9,-170.5 -531.2,-372.4 L 7391.1,1893.5 V 1417.2 941 H 5000 2608.8 v 476.3 476.3 l -503.7,360.6 c -276.4,199.9 -513.5,370.4 -527.2,378.3 -19.7,9.8 -64.7,-35.3 -152.9,-156.8 z"
         id="path6426"
         style="fill:#ff7f02;fill-opacity:1;stroke:none;stroke-width:1061.5;stroke-opacity:1" />
    </g>
    <g
       transform="matrix(5.144085e-4,4.2666875e-5,4.2666875e-5,-5.144085e-4,141.30377,465.6019)"
       id="g2246"
       style="opacity:1;fill:#ff7f02;fill-opacity:1;stroke:none;stroke-width:51.2586;stroke-opacity:1">
      <path
         d="m 1421,4739.5 c -31.4,-111.7 -56.8,-209.7 -56.8,-219.5 0,-9.8 39.2,-31.4 88.2,-47 995.7,-321.5 1830.6,-862.4 2381.4,-1542.5 139.2,-172.5 343,-464.5 343,-492 0,-5.9 -62.7,-78.4 -139.2,-158.8 -233.2,-245 -339.1,-537 -299.9,-823.2 l 17.6,-133.3 1232.8,-5.9 c 938.8,-3.9 1236.8,2 1248.5,19.6 31.4,49 39.2,254.8 17.6,388.1 -33.3,198 -135.2,388.1 -295.9,558.6 -74.5,78.4 -135.2,149 -135.2,156.8 0,31.4 219.5,345 356.7,509.6 388.1,464.5 893.8,864.4 1464.1,1154.4 268.5,137.2 403.8,194 727.2,307.7 221.5,76.4 262.6,98 258.7,129.4 -7.8,41.2 -105.8,384.2 -113.7,395.9 -9.8,9.8 -305.8,-90.2 -576.3,-196 C 6899,4335.7 5970,3592.8 5483.9,2777.5 l -78.4,-135.2 -90.2,17.6 c -115.6,19.6 -515.5,19.6 -631.1,0 l -88.2,-17.6 -76.4,125.4 C 3957.3,3689 2963.6,4439.6 1764,4851.2 c -141.1,49 -264.6,88.2 -272.4,88.2 -5.9,0 -39.2,-90.1 -70.6,-199.9 z"
         id="path2242"
         style="fill:#ff7f02;fill-opacity:1;stroke:none;stroke-width:1061.5;stroke-opacity:1" />
      <path
         d="m 1425,2475.7 c -70.6,-94.1 -127.4,-180.3 -127.4,-192.1 0,-9.8 190.1,-154.8 421.4,-319.5 l 419.4,-299.9 V 1066.4 470.6 h 313.6 313.6 v -245 -245 h -441 -441 l -431.2,-539 c -237.2,-296 -439,-539 -448.8,-539 -7.8,0 -168.6,80.4 -352.8,176.4 -184.2,98 -339.1,176.4 -343,176.4 -11.8,0 -207.8,-366.5 -207.8,-388.1 0,-35.3 1021.2,-556.7 1044.7,-535.1 13.7,9.8 231.3,278.3 484.1,597.8 l 460.6,578.2 h 339.1 l 339.1,2 -5.9,-305.7 -5.9,-303.8 -509.6,-282.2 -509.6,-280.3 -5.9,-809.5 -5.9,-811.4 L 1031,-3812 c -382.2,-290 -693.8,-537 -693.8,-546.8 -2,-7.8 56.8,-94.1 129.4,-188.1 l 131.3,-172.5 78.4,56.8 c 45.1,31.4 397.9,301.9 786,601.7 l 705.6,544.9 5.9,786 3.9,787.9 278.3,152.9 c 152.9,84.3 286.2,156.8 294,158.8 9.8,3.9 15.7,-215.6 13.7,-490 -3.9,-546.8 7.8,-646.8 121.5,-972.1 188.2,-533.1 597.8,-989.8 1125,-1254.4 198,-98 493.9,-184.3 646.8,-188.2 l 137.2,-2 5.9,2338.3 3.9,2336.3 h 196 196 v -2344.2 -2346.1 l 145.1,11.7 c 176.4,11.8 509.6,121.5 719.3,233.3 590,313.6 1015.3,889.8 1146.6,1552.3 23.5,121.5 31.4,270.5 29.4,644.8 -2,268.5 3.9,484.1 13.7,480.2 7.9,-2 141.1,-74.5 294,-158.8 l 278.3,-154.8 2,-786 V -3518 l 754.6,-578.2 c 413.6,-317.5 768.3,-588 787.9,-601.7 29.4,-19.6 51,0 166.6,152.9 98,127.4 129.4,182.3 115.6,199.9 -11.8,13.7 -325.4,258.7 -697.8,542.9 l -676.2,519.4 -5.9,809.5 -5.9,809.5 -509.6,282.2 -509.6,280.3 -5.9,305.8 -5.9,305.7 h 335.2 333.2 l 474.3,-595.8 c 262.6,-329.3 482.1,-597.8 488,-597.8 23.5,-3.9 1036.8,531.2 1036.8,546.9 0,31.3 -201.9,393.9 -215.6,388.1 -7.9,-3.9 -170.5,-84.3 -358.7,-182.3 -188.2,-96.1 -346.9,-172.5 -352.8,-166.6 -3.9,5.9 -199.9,250.9 -433.2,544.9 l -427,533 h -439 -439.1 v 245 243 l 309.7,5.9 307.7,5.9 5.9,591.9 3.9,591.9 411.6,297.9 c 227.4,162.7 417.5,303.8 423.3,313.6 13.7,21.6 -237.1,362.6 -264.6,356.7 -9.8,-3.9 -250.9,-170.5 -531.2,-372.4 L 7391.1,1893.5 V 1417.2 941 H 5000 2608.8 v 476.3 476.3 l -503.7,360.6 c -276.4,199.9 -513.5,370.4 -527.2,378.3 -19.7,9.8 -64.7,-35.3 -152.9,-156.8 z"
         id="path2244"
         style="fill:#ff7f02;fill-opacity:1;stroke:none;stroke-width:1061.5;stroke-opacity:1" />
    </g>
    <path
       style="display:inline;opacity:0.25;fill:none;stroke:#ff7f02;stroke-width:1.48315;stroke-linecap:round;stroke-linejoin:round;stroke-miterlimit:4;stroke-dasharray:none;stroke-opacity:1;filter:url(#filter1505)"
       d="m 124.49498,352.08031 108.64983,74.33935 28.23467,-38.95668 -100.07221,-70.05054 -45.3899,65.40433 43.96029,34.31047 59.68593,-98.64259 41.81589,28.23465 -66.11914,103.28881 -36.81228,-33.59567 -25.73285,41.10109 41.45848,25.37545 20.72925,-33.23827"
       id="path2248"
       transform="matrix(0.99056229,-5.4036593e-4,0.02421482,0.98495263,-29.07584,38.666897)" />
    <path
       style="display:inline;opacity:0.25;fill:none;stroke:#ff7f02;stroke-width:1.465;stroke-linecap:round;stroke-linejoin:round;stroke-miterlimit:4;stroke-dasharray:none;stroke-opacity:1;filter:url(#filter1505)"
       d="M -33.196682,275.88031 75.45314,350.21966 103.68781,311.26298 3.6156003,241.21244 -41.774292,306.61677 2.1859903,340.92724 61.87192,242.28465 103.68781,270.5193 37.56867,373.80811 0.75639033,340.21244 -24.97646,381.31353 16.48202,406.68898 37.21127,373.45071"
       id="path2250" />
    <path
       style="display:inline;opacity:0.25;fill:none;stroke:#1d8eea;stroke-width:1.465;stroke-linecap:round;stroke-linejoin:round;stroke-miterlimit:4;stroke-dasharray:none;stroke-opacity:1;filter:url(#filter1505)"
       d="m 23.424152,424.04697 108.649818,74.33935 28.23468,-38.95668 -100.072216,-70.05054 -45.389892,65.40433 43.960282,34.31047 59.685926,-98.64259 41.8159,28.23465 -66.119146,103.28881 -36.81228,-33.59567 -25.73285,41.10109 41.45848,25.37545 20.72925,-33.23827"
       id="path2252"
       transform="rotate(177.54498,70.264376,452.42295)" />
    <path
       style="fill:none;stroke:#ff7f02;stroke-width:0.565;stroke-linecap:butt;stroke-linejoin:miter;stroke-miterlimit:4;stroke-dasharray:0.282501, 0.282501;stroke-dashoffset:0;stroke-opacity:1"
       d="m 149.99725,-97.696224 c -10.60184,11.354435 -21.20358,22.708765 -14.28084,60.286851 6.92273,37.57808676 31.3685,101.377056 25.75528,165.718503 -5.61322,64.34144 -41.28408,129.22174 -38.16521,175.17978 3.11887,45.95805 45.02588,72.99149 41.03385,133.54861 -3.99204,60.55712 -53.88134,154.63354 -54.62891,226.54454 -0.74756,71.911 47.64419,121.65165 57.40389,168.19988 9.75971,46.54823 -19.11385,89.90003 -26.16052,124.63875 -7.04667,34.73872 7.73321,60.86371 22.51285,86.98821"
       id="path1579"
       sodipodi:nodetypes="ccccccccc"
       inkscape:original-d="m 149.99725,-97.696224 c -10.60141,11.354834 -21.20315,22.709164 -31.80508,34.06284 24.44699,63.80208933 48.89277,127.601054 73.33877,191.400724 -35.67203,64.88347 -71.34289,129.76377 -107.01473,194.64481 41.90897,27.03507 83.81598,54.06852 125.72357,81.10195 -49.89102,94.08079 -99.78034,188.1572 -149.670927,282.23496 48.394847,49.74415 96.786597,99.4848 145.180817,149.22768 -28.87419,43.35373 -57.74805,86.70534 -86.6218,130.05707 14.7802,26.12563 29.56008,52.25059 44.33977,78.37509"
       inkscape:path-effect="#path-effect1583" />
    <g
       transform="matrix(4.9734863e-4,-2.0819543e-4,-2.0819543e-4,-4.9734863e-4,146.64987,371.77436)"
       id="g6002"
       style="fill:#1d8eea;fill-opacity:1;stroke:none;stroke-width:49.0728;stroke-opacity:1">
      <path
         d="m 1421,4739.5 c -31.4,-111.7 -56.8,-209.7 -56.8,-219.5 0,-9.8 39.2,-31.4 88.2,-47 995.7,-321.5 1830.6,-862.4 2381.4,-1542.5 139.2,-172.5 343,-464.5 343,-492 0,-5.9 -62.7,-78.4 -139.2,-158.8 -233.2,-245 -339.1,-537 -299.9,-823.2 l 17.6,-133.3 1232.8,-5.9 c 938.8,-3.9 1236.8,2 1248.5,19.6 31.4,49 39.2,254.8 17.6,388.1 -33.3,198 -135.2,388.1 -295.9,558.6 -74.5,78.4 -135.2,149 -135.2,156.8 0,31.4 219.5,345 356.7,509.6 388.1,464.5 893.8,864.4 1464.1,1154.4 268.5,137.2 403.8,194 727.2,307.7 221.5,76.4 262.6,98 258.7,129.4 -7.8,41.2 -105.8,384.2 -113.7,395.9 -9.8,9.8 -305.8,-90.2 -576.3,-196 C 6899,4335.7 5970,3592.8 5483.9,2777.5 l -78.4,-135.2 -90.2,17.6 c -115.6,19.6 -515.5,19.6 -631.1,0 l -88.2,-17.6 -76.4,125.4 C 3957.3,3689 2963.6,4439.6 1764,4851.2 c -141.1,49 -264.6,88.2 -272.4,88.2 -5.9,0 -39.2,-90.1 -70.6,-199.9 z"
         id="path5998"
         style="fill:#1d8eea;fill-opacity:1;stroke:none;stroke-width:1016.24;stroke-opacity:1" />
      <path
         d="m 1425,2475.7 c -70.6,-94.1 -127.4,-180.3 -127.4,-192.1 0,-9.8 190.1,-154.8 421.4,-319.5 l 419.4,-299.9 V 1066.4 470.6 h 313.6 313.6 v -245 -245 h -441 -441 l -431.2,-539 c -237.2,-296 -439,-539 -448.8,-539 -7.8,0 -168.6,80.4 -352.8,176.4 -184.2,98 -339.1,176.4 -343,176.4 -11.8,0 -207.8,-366.5 -207.8,-388.1 0,-35.3 1021.2,-556.7 1044.7,-535.1 13.7,9.8 231.3,278.3 484.1,597.8 l 460.6,578.2 h 339.1 l 339.1,2 -5.9,-305.7 -5.9,-303.8 -509.6,-282.2 -509.6,-280.3 -5.9,-809.5 -5.9,-811.4 L 1031,-3812 c -382.2,-290 -693.8,-537 -693.8,-546.8 -2,-7.8 56.8,-94.1 129.4,-188.1 l 131.3,-172.5 78.4,56.8 c 45.1,31.4 397.9,301.9 786,601.7 l 705.6,544.9 5.9,786 3.9,787.9 278.3,152.9 c 152.9,84.3 286.2,156.8 294,158.8 9.8,3.9 15.7,-215.6 13.7,-490 -3.9,-546.8 7.8,-646.8 121.5,-972.1 188.2,-533.1 597.8,-989.8 1125,-1254.4 198,-98 493.9,-184.3 646.8,-188.2 l 137.2,-2 5.9,2338.3 3.9,2336.3 h 196 196 v -2344.2 -2346.1 l 145.1,11.7 c 176.4,11.8 509.6,121.5 719.3,233.3 590,313.6 1015.3,889.8 1146.6,1552.3 23.5,121.5 31.4,270.5 29.4,644.8 -2,268.5 3.9,484.1 13.7,480.2 7.9,-2 141.1,-74.5 294,-158.8 l 278.3,-154.8 2,-786 V -3518 l 754.6,-578.2 c 413.6,-317.5 768.3,-588 787.9,-601.7 29.4,-19.6 51,0 166.6,152.9 98,127.4 129.4,182.3 115.6,199.9 -11.8,13.7 -325.4,258.7 -697.8,542.9 l -676.2,519.4 -5.9,809.5 -5.9,809.5 -509.6,282.2 -509.6,280.3 -5.9,305.8 -5.9,305.7 h 335.2 333.2 l 474.3,-595.8 c 262.6,-329.3 482.1,-597.8 488,-597.8 23.5,-3.9 1036.8,531.2 1036.8,546.9 0,31.3 -201.9,393.9 -215.6,388.1 -7.9,-3.9 -170.5,-84.3 -358.7,-182.3 -188.2,-96.1 -346.9,-172.5 -352.8,-166.6 -3.9,5.9 -199.9,250.9 -433.2,544.9 l -427,533 h -439 -439.1 v 245 243 l 309.7,5.9 307.7,5.9 5.9,591.9 3.9,591.9 411.6,297.9 c 227.4,162.7 417.5,303.8 423.3,313.6 13.7,21.6 -237.1,362.6 -264.6,356.7 -9.8,-3.9 -250.9,-170.5 -531.2,-372.4 L 7391.1,1893.5 V 1417.2 941 H 5000 2608.8 v 476.3 476.3 l -503.7,360.6 c -276.4,199.9 -513.5,370.4 -527.2,378.3 -19.7,9.8 -64.7,-35.3 -152.9,-156.8 z"
         id="path6000"
         style="fill:#1d8eea;fill-opacity:1;stroke:none;stroke-width:1016.24;stroke-opacity:1" />
    </g>
    <g
       transform="matrix(5.1661767e-4,2.5585097e-4,2.5585097e-4,-5.1661767e-4,145.01732,193.38077)"
       id="g6422"
       style="fill:#1d8eea;fill-opacity:1;stroke:none;stroke-width:45.8948;stroke-opacity:1" />
    <g
       transform="matrix(4.4523806e-4,1.9258255e-4,1.9258255e-4,-4.4523806e-4,134.44792,229.86809)"
       id="g1401"
       style="fill:#1d8eea;fill-opacity:1;stroke:none;stroke-width:54.5419;stroke-opacity:1">
      <path
         d="m 1421,4739.5 c -31.4,-111.7 -56.8,-209.7 -56.8,-219.5 0,-9.8 39.2,-31.4 88.2,-47 995.7,-321.5 1830.6,-862.4 2381.4,-1542.5 139.2,-172.5 343,-464.5 343,-492 0,-5.9 -62.7,-78.4 -139.2,-158.8 -233.2,-245 -339.1,-537 -299.9,-823.2 l 17.6,-133.3 1232.8,-5.9 c 938.8,-3.9 1236.8,2 1248.5,19.6 31.4,49 39.2,254.8 17.6,388.1 -33.3,198 -135.2,388.1 -295.9,558.6 -74.5,78.4 -135.2,149 -135.2,156.8 0,31.4 219.5,345 356.7,509.6 388.1,464.5 893.8,864.4 1464.1,1154.4 268.5,137.2 403.8,194 727.2,307.7 221.5,76.4 262.6,98 258.7,129.4 -7.8,41.2 -105.8,384.2 -113.7,395.9 -9.8,9.8 -305.8,-90.2 -576.3,-196 C 6899,4335.7 5970,3592.8 5483.9,2777.5 l -78.4,-135.2 -90.2,17.6 c -115.6,19.6 -515.5,19.6 -631.1,0 l -88.2,-17.6 -76.4,125.4 C 3957.3,3689 2963.6,4439.6 1764,4851.2 c -141.1,49 -264.6,88.2 -272.4,88.2 -5.9,0 -39.2,-90.1 -70.6,-199.9 z"
         id="path1397"
         style="fill:#1d8eea;fill-opacity:1;stroke:none;stroke-width:1129.49;stroke-opacity:1" />
      <path
         d="m 1425,2475.7 c -70.6,-94.1 -127.4,-180.3 -127.4,-192.1 0,-9.8 190.1,-154.8 421.4,-319.5 l 419.4,-299.9 V 1066.4 470.6 h 313.6 313.6 v -245 -245 h -441 -441 l -431.2,-539 c -237.2,-296 -439,-539 -448.8,-539 -7.8,0 -168.6,80.4 -352.8,176.4 -184.2,98 -339.1,176.4 -343,176.4 -11.8,0 -207.8,-366.5 -207.8,-388.1 0,-35.3 1021.2,-556.7 1044.7,-535.1 13.7,9.8 231.3,278.3 484.1,597.8 l 460.6,578.2 h 339.1 l 339.1,2 -5.9,-305.7 -5.9,-303.8 -509.6,-282.2 -509.6,-280.3 -5.9,-809.5 -5.9,-811.4 L 1031,-3812 c -382.2,-290 -693.8,-537 -693.8,-546.8 -2,-7.8 56.8,-94.1 129.4,-188.1 l 131.3,-172.5 78.4,56.8 c 45.1,31.4 397.9,301.9 786,601.7 l 705.6,544.9 5.9,786 3.9,787.9 278.3,152.9 c 152.9,84.3 286.2,156.8 294,158.8 9.8,3.9 15.7,-215.6 13.7,-490 -3.9,-546.8 7.8,-646.8 121.5,-972.1 188.2,-533.1 597.8,-989.8 1125,-1254.4 198,-98 493.9,-184.3 646.8,-188.2 l 137.2,-2 5.9,2338.3 3.9,2336.3 h 196 196 v -2344.2 -2346.1 l 145.1,11.7 c 176.4,11.8 509.6,121.5 719.3,233.3 590,313.6 1015.3,889.8 1146.6,1552.3 23.5,121.5 31.4,270.5 29.4,644.8 -2,268.5 3.9,484.1 13.7,480.2 7.9,-2 141.1,-74.5 294,-158.8 l 278.3,-154.8 2,-786 V -3518 l 754.6,-578.2 c 413.6,-317.5 768.3,-588 787.9,-601.7 29.4,-19.6 51,0 166.6,152.9 98,127.4 129.4,182.3 115.6,199.9 -11.8,13.7 -325.4,258.7 -697.8,542.9 l -676.2,519.4 -5.9,809.5 -5.9,809.5 -509.6,282.2 -509.6,280.3 -5.9,305.8 -5.9,305.7 h 335.2 333.2 l 474.3,-595.8 c 262.6,-329.3 482.1,-597.8 488,-597.8 23.5,-3.9 1036.8,531.2 1036.8,546.9 0,31.3 -201.9,393.9 -215.6,388.1 -7.9,-3.9 -170.5,-84.3 -358.7,-182.3 -188.2,-96.1 -346.9,-172.5 -352.8,-166.6 -3.9,5.9 -199.9,250.9 -433.2,544.9 l -427,533 h -439 -439.1 v 245 243 l 309.7,5.9 307.7,5.9 5.9,591.9 3.9,591.9 411.6,297.9 c 227.4,162.7 417.5,303.8 423.3,313.6 13.7,21.6 -237.1,362.6 -264.6,356.7 -9.8,-3.9 -250.9,-170.5 -531.2,-372.4 L 7391.1,1893.5 V 1417.2 941 H 5000 2608.8 v 476.3 476.3 l -503.7,360.6 c -276.4,199.9 -513.5,370.4 -527.2,378.3 -19.7,9.8 -64.7,-35.3 -152.9,-156.8 z"
         id="path1399"
         style="fill:#1d8eea;fill-opacity:1;stroke:none;stroke-width:1129.49;stroke-opacity:1" />
    </g>
    <g
       transform="matrix(3.9524942e-4,-7.47538e-5,-7.47538e-5,-3.9524942e-4,156.85864,66.062974)"
       id="g1642"
       style="display:inline;fill:#1d8eea;fill-opacity:1;stroke:none;stroke-width:65.775;stroke-opacity:1">
      <path
         d="m 1421,4739.5 c -31.4,-111.7 -56.8,-209.7 -56.8,-219.5 0,-9.8 39.2,-31.4 88.2,-47 995.7,-321.5 1830.6,-862.4 2381.4,-1542.5 139.2,-172.5 343,-464.5 343,-492 0,-5.9 -62.7,-78.4 -139.2,-158.8 -233.2,-245 -339.1,-537 -299.9,-823.2 l 17.6,-133.3 1232.8,-5.9 c 938.8,-3.9 1236.8,2 1248.5,19.6 31.4,49 39.2,254.8 17.6,388.1 -33.3,198 -135.2,388.1 -295.9,558.6 -74.5,78.4 -135.2,149 -135.2,156.8 0,31.4 219.5,345 356.7,509.6 388.1,464.5 893.8,864.4 1464.1,1154.4 268.5,137.2 403.8,194 727.2,307.7 221.5,76.4 262.6,98 258.7,129.4 -7.8,41.2 -105.8,384.2 -113.7,395.9 -9.8,9.8 -305.8,-90.2 -576.3,-196 C 6899,4335.7 5970,3592.8 5483.9,2777.5 l -78.4,-135.2 -90.2,17.6 c -115.6,19.6 -515.5,19.6 -631.1,0 l -88.2,-17.6 -76.4,125.4 C 3957.3,3689 2963.6,4439.6 1764,4851.2 c -141.1,49 -264.6,88.2 -272.4,88.2 -5.9,0 -39.2,-90.1 -70.6,-199.9 z"
         id="path1638"
         style="fill:#1d8eea;fill-opacity:1;stroke:none;stroke-width:1362.12;stroke-opacity:1" />
      <path
         d="m 1425,2475.7 c -70.6,-94.1 -127.4,-180.3 -127.4,-192.1 0,-9.8 190.1,-154.8 421.4,-319.5 l 419.4,-299.9 V 1066.4 470.6 h 313.6 313.6 v -245 -245 h -441 -441 l -431.2,-539 c -237.2,-296 -439,-539 -448.8,-539 -7.8,0 -168.6,80.4 -352.8,176.4 -184.2,98 -339.1,176.4 -343,176.4 -11.8,0 -207.8,-366.5 -207.8,-388.1 0,-35.3 1021.2,-556.7 1044.7,-535.1 13.7,9.8 231.3,278.3 484.1,597.8 l 460.6,578.2 h 339.1 l 339.1,2 -5.9,-305.7 -5.9,-303.8 -509.6,-282.2 -509.6,-280.3 -5.9,-809.5 -5.9,-811.4 L 1031,-3812 c -382.2,-290 -693.8,-537 -693.8,-546.8 -2,-7.8 56.8,-94.1 129.4,-188.1 l 131.3,-172.5 78.4,56.8 c 45.1,31.4 397.9,301.9 786,601.7 l 705.6,544.9 5.9,786 3.9,787.9 278.3,152.9 c 152.9,84.3 286.2,156.8 294,158.8 9.8,3.9 15.7,-215.6 13.7,-490 -3.9,-546.8 7.8,-646.8 121.5,-972.1 188.2,-533.1 597.8,-989.8 1125,-1254.4 198,-98 493.9,-184.3 646.8,-188.2 l 137.2,-2 5.9,2338.3 3.9,2336.3 h 196 196 v -2344.2 -2346.1 l 145.1,11.7 c 176.4,11.8 509.6,121.5 719.3,233.3 590,313.6 1015.3,889.8 1146.6,1552.3 23.5,121.5 31.4,270.5 29.4,644.8 -2,268.5 3.9,484.1 13.7,480.2 7.9,-2 141.1,-74.5 294,-158.8 l 278.3,-154.8 2,-786 V -3518 l 754.6,-578.2 c 413.6,-317.5 768.3,-588 787.9,-601.7 29.4,-19.6 51,0 166.6,152.9 98,127.4 129.4,182.3 115.6,199.9 -11.8,13.7 -325.4,258.7 -697.8,542.9 l -676.2,519.4 -5.9,809.5 -5.9,809.5 -509.6,282.2 -509.6,280.3 -5.9,305.8 -5.9,305.7 h 335.2 333.2 l 474.3,-595.8 c 262.6,-329.3 482.1,-597.8 488,-597.8 23.5,-3.9 1036.8,531.2 1036.8,546.9 0,31.3 -201.9,393.9 -215.6,388.1 -7.9,-3.9 -170.5,-84.3 -358.7,-182.3 -188.2,-96.1 -346.9,-172.5 -352.8,-166.6 -3.9,5.9 -199.9,250.9 -433.2,544.9 l -427,533 h -439 -439.1 v 245 243 l 309.7,5.9 307.7,5.9 5.9,591.9 3.9,591.9 411.6,297.9 c 227.4,162.7 417.5,303.8 423.3,313.6 13.7,21.6 -237.1,362.6 -264.6,356.7 -9.8,-3.9 -250.9,-170.5 -531.2,-372.4 L 7391.1,1893.5 V 1417.2 941 H 5000 2608.8 v 476.3 476.3 l -503.7,360.6 c -276.4,199.9 -513.5,370.4 -527.2,378.3 -19.7,9.8 -64.7,-35.3 -152.9,-156.8 z"
         id="path1640"
         style="fill:#1d8eea;fill-opacity:1;stroke:none;stroke-width:1362.12;stroke-opacity:1" />
    </g>
    <path
       style="display:inline;opacity:0.25;fill:none;stroke:#ff7f02;stroke-width:1.24528;stroke-linecap:round;stroke-linejoin:round;stroke-miterlimit:4;stroke-dasharray:none;stroke-opacity:1;filter:url(#filter1505)"
       d="m 124.49498,352.08031 108.64983,74.33935 28.23467,-38.95668 -100.07221,-70.05054 -45.3899,65.40433 43.96029,34.31047 59.68593,-98.64259 41.81589,28.23465 -66.11914,103.28881 -36.81228,-33.59567 -25.73285,41.10109 41.45848,25.37545 20.72925,-33.23827"
       id="path873"
       transform="matrix(-1.1766982,6.4527361e-4,-0.02876501,-1.1761732,251.01513,1045.1493)" />
    <g
       transform="matrix(4.6428692e-4,1.8242956e-4,1.8242956e-4,-4.6428692e-4,145.87511,507.18802)"
       id="g2240"
       style="fill:#1d8eea;fill-opacity:1;stroke:none;stroke-width:53.0397;stroke-opacity:1">
      <path
         d="m 1421,4739.5 c -31.4,-111.7 -56.8,-209.7 -56.8,-219.5 0,-9.8 39.2,-31.4 88.2,-47 995.7,-321.5 1830.6,-862.4 2381.4,-1542.5 139.2,-172.5 343,-464.5 343,-492 0,-5.9 -62.7,-78.4 -139.2,-158.8 -233.2,-245 -339.1,-537 -299.9,-823.2 l 17.6,-133.3 1232.8,-5.9 c 938.8,-3.9 1236.8,2 1248.5,19.6 31.4,49 39.2,254.8 17.6,388.1 -33.3,198 -135.2,388.1 -295.9,558.6 -74.5,78.4 -135.2,149 -135.2,156.8 0,31.4 219.5,345 356.7,509.6 388.1,464.5 893.8,864.4 1464.1,1154.4 268.5,137.2 403.8,194 727.2,307.7 221.5,76.4 262.6,98 258.7,129.4 -7.8,41.2 -105.8,384.2 -113.7,395.9 -9.8,9.8 -305.8,-90.2 -576.3,-196 C 6899,4335.7 5970,3592.8 5483.9,2777.5 l -78.4,-135.2 -90.2,17.6 c -115.6,19.6 -515.5,19.6 -631.1,0 l -88.2,-17.6 -76.4,125.4 C 3957.3,3689 2963.6,4439.6 1764,4851.2 c -141.1,49 -264.6,88.2 -272.4,88.2 -5.9,0 -39.2,-90.1 -70.6,-199.9 z"
         id="path2236"
         style="fill:#1d8eea;fill-opacity:1;stroke:none;stroke-width:1098.39;stroke-opacity:1" />
      <path
         d="m 1425,2475.7 c -70.6,-94.1 -127.4,-180.3 -127.4,-192.1 0,-9.8 190.1,-154.8 421.4,-319.5 l 419.4,-299.9 V 1066.4 470.6 h 313.6 313.6 v -245 -245 h -441 -441 l -431.2,-539 c -237.2,-296 -439,-539 -448.8,-539 -7.8,0 -168.6,80.4 -352.8,176.4 -184.2,98 -339.1,176.4 -343,176.4 -11.8,0 -207.8,-366.5 -207.8,-388.1 0,-35.3 1021.2,-556.7 1044.7,-535.1 13.7,9.8 231.3,278.3 484.1,597.8 l 460.6,578.2 h 339.1 l 339.1,2 -5.9,-305.7 -5.9,-303.8 -509.6,-282.2 -509.6,-280.3 -5.9,-809.5 -5.9,-811.4 L 1031,-3812 c -382.2,-290 -693.8,-537 -693.8,-546.8 -2,-7.8 56.8,-94.1 129.4,-188.1 l 131.3,-172.5 78.4,56.8 c 45.1,31.4 397.9,301.9 786,601.7 l 705.6,544.9 5.9,786 3.9,787.9 278.3,152.9 c 152.9,84.3 286.2,156.8 294,158.8 9.8,3.9 15.7,-215.6 13.7,-490 -3.9,-546.8 7.8,-646.8 121.5,-972.1 188.2,-533.1 597.8,-989.8 1125,-1254.4 198,-98 493.9,-184.3 646.8,-188.2 l 137.2,-2 5.9,2338.3 3.9,2336.3 h 196 196 v -2344.2 -2346.1 l 145.1,11.7 c 176.4,11.8 509.6,121.5 719.3,233.3 590,313.6 1015.3,889.8 1146.6,1552.3 23.5,121.5 31.4,270.5 29.4,644.8 -2,268.5 3.9,484.1 13.7,480.2 7.9,-2 141.1,-74.5 294,-158.8 l 278.3,-154.8 2,-786 V -3518 l 754.6,-578.2 c 413.6,-317.5 768.3,-588 787.9,-601.7 29.4,-19.6 51,0 166.6,152.9 98,127.4 129.4,182.3 115.6,199.9 -11.8,13.7 -325.4,258.7 -697.8,542.9 l -676.2,519.4 -5.9,809.5 -5.9,809.5 -509.6,282.2 -509.6,280.3 -5.9,305.8 -5.9,305.7 h 335.2 333.2 l 474.3,-595.8 c 262.6,-329.3 482.1,-597.8 488,-597.8 23.5,-3.9 1036.8,531.2 1036.8,546.9 0,31.3 -201.9,393.9 -215.6,388.1 -7.9,-3.9 -170.5,-84.3 -358.7,-182.3 -188.2,-96.1 -346.9,-172.5 -352.8,-166.6 -3.9,5.9 -199.9,250.9 -433.2,544.9 l -427,533 h -439 -439.1 v 245 243 l 309.7,5.9 307.7,5.9 5.9,591.9 3.9,591.9 411.6,297.9 c 227.4,162.7 417.5,303.8 423.3,313.6 13.7,21.6 -237.1,362.6 -264.6,356.7 -9.8,-3.9 -250.9,-170.5 -531.2,-372.4 L 7391.1,1893.5 V 1417.2 941 H 5000 2608.8 v 476.3 476.3 l -503.7,360.6 c -276.4,199.9 -513.5,370.4 -527.2,378.3 -19.7,9.8 -64.7,-35.3 -152.9,-156.8 z"
         id="path2238"
         style="fill:#1d8eea;fill-opacity:1;stroke:none;stroke-width:1098.39;stroke-opacity:1" />
    </g>
    <path
       style="display:inline;opacity:0.25;fill:none;stroke:#1d8eea;stroke-width:1.23004;stroke-linecap:round;stroke-linejoin:round;stroke-miterlimit:4;stroke-dasharray:none;stroke-opacity:1;filter:url(#filter1505)"
       d="m 23.424152,424.04697 108.649818,74.33935 28.23468,-38.95668 -100.072216,-70.05054 -45.389892,65.40433 43.960282,34.31047 59.685926,-98.64259 41.8159,28.23465 -66.119146,103.28881 -36.81228,-33.59567 -25.73285,41.10109 41.45848,25.37545 20.72925,-33.23827"
       id="path875"
       transform="matrix(1.1868191,-0.05115116,0.05088418,1.1930459,26.595696,14.898653)" />
    <path
       style="display:inline;opacity:0.25;fill:none;stroke:#ff7f02;stroke-width:1.24528;stroke-linecap:round;stroke-linejoin:round;stroke-miterlimit:4;stroke-dasharray:none;stroke-opacity:1;filter:url(#filter1505)"
       d="m 124.49498,352.08031 108.64983,74.33935 28.23467,-38.95668 -100.07221,-70.05054 -45.3899,65.40433 43.96029,34.31047 59.68593,-98.64259 41.81589,28.23465 -66.11914,103.28881 -36.81228,-33.59567 -25.73285,41.10109 41.45848,25.37545 20.72925,-33.23827"
       id="path877"
       transform="matrix(1.1766982,-6.4527361e-4,0.02876501,1.1761732,-76.208656,248.26119)" />
    <path
       style="display:inline;opacity:0.25;fill:none;stroke:#1d8eea;stroke-width:1.23004;stroke-linecap:round;stroke-linejoin:round;stroke-miterlimit:4;stroke-dasharray:none;stroke-opacity:1;filter:url(#filter1505)"
       d="m 23.424152,424.04697 108.649818,74.33935 28.23468,-38.95668 -100.072216,-70.05054 -45.389892,65.40433 43.960282,34.31047 59.685926,-98.64259 41.8159,28.23465 -66.119146,103.28881 -36.81228,-33.59567 -25.73285,41.10109 41.45848,25.37545 20.72925,-33.23827"
       id="path879"
       transform="matrix(-1.1868191,0.05115116,-0.05088418,-1.1930459,148.21078,1278.5119)" />
    <path
       style="display:inline;opacity:0.25;fill:none;stroke:#ff7f02;stroke-width:1.24528;stroke-linecap:round;stroke-linejoin:round;stroke-miterlimit:4;stroke-dasharray:none;stroke-opacity:1;filter:url(#filter1505)"
       d="m 124.49498,352.08031 108.64983,74.33935 28.23467,-38.95668 -100.07221,-70.05054 -45.3899,65.40433 43.96029,34.31047 59.68593,-98.64259 41.81589,28.23465 -66.11914,103.28881 -36.81228,-33.59567 -25.73285,41.10109 41.45848,25.37545 20.72925,-33.23827"
       id="path881"
       transform="matrix(-6.4527361e-4,-1.1766982,1.1761732,-0.02876501,-452.58399,1108.1694)" />
    <path
       style="display:inline;opacity:0.25;fill:none;stroke:#1d8eea;stroke-width:1.23004;stroke-linecap:round;stroke-linejoin:round;stroke-miterlimit:4;stroke-dasharray:none;stroke-opacity:1;filter:url(#filter1505)"
       d="m 23.424152,424.04697 108.649818,74.33935 28.23468,-38.95668 -100.072216,-70.05054 -45.389892,65.40433 43.960282,34.31047 59.685926,-98.64259 41.8159,28.23465 -66.119146,103.28881 -36.81228,-33.59567 -25.73285,41.10109 41.45848,25.37545 20.72925,-33.23827"
       id="path883"
       transform="matrix(0.05115116,1.1868191,-1.1930459,0.05088418,712.79108,747.19507)" />
    <g
       transform="matrix(4.7494975e-4,-7.3013301e-5,-7.5301544e-5,-4.605171e-4,106.74441,316.59154)"
       id="g1273"
       style="opacity:1;fill:#ff7f02;fill-opacity:1;stroke:none;stroke-width:55.8761;stroke-opacity:1">
      <path
         d="m 1421,4739.5 c -31.4,-111.7 -56.8,-209.7 -56.8,-219.5 0,-9.8 39.2,-31.4 88.2,-47 995.7,-321.5 1830.6,-862.4 2381.4,-1542.5 139.2,-172.5 343,-464.5 343,-492 0,-5.9 -62.7,-78.4 -139.2,-158.8 -233.2,-245 -339.1,-537 -299.9,-823.2 l 17.6,-133.3 1232.8,-5.9 c 938.8,-3.9 1236.8,2 1248.5,19.6 31.4,49 39.2,254.8 17.6,388.1 -33.3,198 -135.2,388.1 -295.9,558.6 -74.5,78.4 -135.2,149 -135.2,156.8 0,31.4 219.5,345 356.7,509.6 388.1,464.5 893.8,864.4 1464.1,1154.4 268.5,137.2 403.8,194 727.2,307.7 221.5,76.4 262.6,98 258.7,129.4 -7.8,41.2 -105.8,384.2 -113.7,395.9 -9.8,9.8 -305.8,-90.2 -576.3,-196 C 6899,4335.7 5970,3592.8 5483.9,2777.5 l -78.4,-135.2 -90.2,17.6 c -115.6,19.6 -515.5,19.6 -631.1,0 l -88.2,-17.6 -76.4,125.4 C 3957.3,3689 2963.6,4439.6 1764,4851.2 c -141.1,49 -264.6,88.2 -272.4,88.2 -5.9,0 -39.2,-90.1 -70.6,-199.9 z"
         id="path1269"
         style="fill:#ff7f02;fill-opacity:1;stroke:none;stroke-width:1157.12;stroke-opacity:1" />
      <path
         d="m 1425,2475.7 c -70.6,-94.1 -127.4,-180.3 -127.4,-192.1 0,-9.8 190.1,-154.8 421.4,-319.5 l 419.4,-299.9 V 1066.4 470.6 h 313.6 313.6 v -245 -245 h -441 -441 l -431.2,-539 c -237.2,-296 -439,-539 -448.8,-539 -7.8,0 -168.6,80.4 -352.8,176.4 -184.2,98 -339.1,176.4 -343,176.4 -11.8,0 -207.8,-366.5 -207.8,-388.1 0,-35.3 1021.2,-556.7 1044.7,-535.1 13.7,9.8 231.3,278.3 484.1,597.8 l 460.6,578.2 h 339.1 l 339.1,2 -5.9,-305.7 -5.9,-303.8 -509.6,-282.2 -509.6,-280.3 -5.9,-809.5 -5.9,-811.4 L 1031,-3812 c -382.2,-290 -693.8,-537 -693.8,-546.8 -2,-7.8 56.8,-94.1 129.4,-188.1 l 131.3,-172.5 78.4,56.8 c 45.1,31.4 397.9,301.9 786,601.7 l 705.6,544.9 5.9,786 3.9,787.9 278.3,152.9 c 152.9,84.3 286.2,156.8 294,158.8 9.8,3.9 15.7,-215.6 13.7,-490 -3.9,-546.8 7.8,-646.8 121.5,-972.1 188.2,-533.1 597.8,-989.8 1125,-1254.4 198,-98 493.9,-184.3 646.8,-188.2 l 137.2,-2 5.9,2338.3 3.9,2336.3 h 196 196 v -2344.2 -2346.1 l 145.1,11.7 c 176.4,11.8 509.6,121.5 719.3,233.3 590,313.6 1015.3,889.8 1146.6,1552.3 23.5,121.5 31.4,270.5 29.4,644.8 -2,268.5 3.9,484.1 13.7,480.2 7.9,-2 141.1,-74.5 294,-158.8 l 278.3,-154.8 2,-786 V -3518 l 754.6,-578.2 c 413.6,-317.5 768.3,-588 787.9,-601.7 29.4,-19.6 51,0 166.6,152.9 98,127.4 129.4,182.3 115.6,199.9 -11.8,13.7 -325.4,258.7 -697.8,542.9 l -676.2,519.4 -5.9,809.5 -5.9,809.5 -509.6,282.2 -509.6,280.3 -5.9,305.8 -5.9,305.7 h 335.2 333.2 l 474.3,-595.8 c 262.6,-329.3 482.1,-597.8 488,-597.8 23.5,-3.9 1036.8,531.2 1036.8,546.9 0,31.3 -201.9,393.9 -215.6,388.1 -7.9,-3.9 -170.5,-84.3 -358.7,-182.3 -188.2,-96.1 -346.9,-172.5 -352.8,-166.6 -3.9,5.9 -199.9,250.9 -433.2,544.9 l -427,533 h -439 -439.1 v 245 243 l 309.7,5.9 307.7,5.9 5.9,591.9 3.9,591.9 411.6,297.9 c 227.4,162.7 417.5,303.8 423.3,313.6 13.7,21.6 -237.1,362.6 -264.6,356.7 -9.8,-3.9 -250.9,-170.5 -531.2,-372.4 L 7391.1,1893.5 V 1417.2 941 H 5000 2608.8 v 476.3 476.3 l -503.7,360.6 c -276.4,199.9 -513.5,370.4 -527.2,378.3 -19.7,9.8 -64.7,-35.3 -152.9,-156.8 z"
         id="path1271"
         style="fill:#ff7f02;fill-opacity:1;stroke:none;stroke-width:1157.12;stroke-opacity:1" />
    </g>
    <g
       transform="matrix(4.8398488e-4,-1.794302e-4,-1.794302e-4,-4.8398488e-4,112.03212,749.61449)"
       id="g1345"
       style="opacity:1;fill:#ff7f02;fill-opacity:1;stroke:none;stroke-width:51.2586;stroke-opacity:1">
      <path
         d="m 1421,4739.5 c -31.4,-111.7 -56.8,-209.7 -56.8,-219.5 0,-9.8 39.2,-31.4 88.2,-47 995.7,-321.5 1830.6,-862.4 2381.4,-1542.5 139.2,-172.5 343,-464.5 343,-492 0,-5.9 -62.7,-78.4 -139.2,-158.8 -233.2,-245 -339.1,-537 -299.9,-823.2 l 17.6,-133.3 1232.8,-5.9 c 938.8,-3.9 1236.8,2 1248.5,19.6 31.4,49 39.2,254.8 17.6,388.1 -33.3,198 -135.2,388.1 -295.9,558.6 -74.5,78.4 -135.2,149 -135.2,156.8 0,31.4 219.5,345 356.7,509.6 388.1,464.5 893.8,864.4 1464.1,1154.4 268.5,137.2 403.8,194 727.2,307.7 221.5,76.4 262.6,98 258.7,129.4 -7.8,41.2 -105.8,384.2 -113.7,395.9 -9.8,9.8 -305.8,-90.2 -576.3,-196 C 6899,4335.7 5970,3592.8 5483.9,2777.5 l -78.4,-135.2 -90.2,17.6 c -115.6,19.6 -515.5,19.6 -631.1,0 l -88.2,-17.6 -76.4,125.4 C 3957.3,3689 2963.6,4439.6 1764,4851.2 c -141.1,49 -264.6,88.2 -272.4,88.2 -5.9,0 -39.2,-90.1 -70.6,-199.9 z"
         id="path1341"
         style="fill:#ff7f02;fill-opacity:1;stroke:none;stroke-width:1061.5;stroke-opacity:1" />
      <path
         d="m 1425,2475.7 c -70.6,-94.1 -127.4,-180.3 -127.4,-192.1 0,-9.8 190.1,-154.8 421.4,-319.5 l 419.4,-299.9 V 1066.4 470.6 h 313.6 313.6 v -245 -245 h -441 -441 l -431.2,-539 c -237.2,-296 -439,-539 -448.8,-539 -7.8,0 -168.6,80.4 -352.8,176.4 -184.2,98 -339.1,176.4 -343,176.4 -11.8,0 -207.8,-366.5 -207.8,-388.1 0,-35.3 1021.2,-556.7 1044.7,-535.1 13.7,9.8 231.3,278.3 484.1,597.8 l 460.6,578.2 h 339.1 l 339.1,2 -5.9,-305.7 -5.9,-303.8 -509.6,-282.2 -509.6,-280.3 -5.9,-809.5 -5.9,-811.4 L 1031,-3812 c -382.2,-290 -693.8,-537 -693.8,-546.8 -2,-7.8 56.8,-94.1 129.4,-188.1 l 131.3,-172.5 78.4,56.8 c 45.1,31.4 397.9,301.9 786,601.7 l 705.6,544.9 5.9,786 3.9,787.9 278.3,152.9 c 152.9,84.3 286.2,156.8 294,158.8 9.8,3.9 15.7,-215.6 13.7,-490 -3.9,-546.8 7.8,-646.8 121.5,-972.1 188.2,-533.1 597.8,-989.8 1125,-1254.4 198,-98 493.9,-184.3 646.8,-188.2 l 137.2,-2 5.9,2338.3 3.9,2336.3 h 196 196 v -2344.2 -2346.1 l 145.1,11.7 c 176.4,11.8 509.6,121.5 719.3,233.3 590,313.6 1015.3,889.8 1146.6,1552.3 23.5,121.5 31.4,270.5 29.4,644.8 -2,268.5 3.9,484.1 13.7,480.2 7.9,-2 141.1,-74.5 294,-158.8 l 278.3,-154.8 2,-786 V -3518 l 754.6,-578.2 c 413.6,-317.5 768.3,-588 787.9,-601.7 29.4,-19.6 51,0 166.6,152.9 98,127.4 129.4,182.3 115.6,199.9 -11.8,13.7 -325.4,258.7 -697.8,542.9 l -676.2,519.4 -5.9,809.5 -5.9,809.5 -509.6,282.2 -509.6,280.3 -5.9,305.8 -5.9,305.7 h 335.2 333.2 l 474.3,-595.8 c 262.6,-329.3 482.1,-597.8 488,-597.8 23.5,-3.9 1036.8,531.2 1036.8,546.9 0,31.3 -201.9,393.9 -215.6,388.1 -7.9,-3.9 -170.5,-84.3 -358.7,-182.3 -188.2,-96.1 -346.9,-172.5 -352.8,-166.6 -3.9,5.9 -199.9,250.9 -433.2,544.9 l -427,533 h -439 -439.1 v 245 243 l 309.7,5.9 307.7,5.9 5.9,591.9 3.9,591.9 411.6,297.9 c 227.4,162.7 417.5,303.8 423.3,313.6 13.7,21.6 -237.1,362.6 -264.6,356.7 -9.8,-3.9 -250.9,-170.5 -531.2,-372.4 L 7391.1,1893.5 V 1417.2 941 H 5000 2608.8 v 476.3 476.3 l -503.7,360.6 c -276.4,199.9 -513.5,370.4 -527.2,378.3 -19.7,9.8 -64.7,-35.3 -152.9,-156.8 z"
         id="path1343"
         style="fill:#ff7f02;fill-opacity:1;stroke:none;stroke-width:1061.5;stroke-opacity:1" />
    </g>
    <g
       transform="matrix(4.3536185e-4,6.9629289e-5,6.9629289e-5,-4.3536185e-4,107.73186,673.97061)"
       id="g1351"
       style="fill:#1d8eea;fill-opacity:1;stroke:none;stroke-width:60.0108;stroke-opacity:1">
      <path
         d="m 1421,4739.5 c -31.4,-111.7 -56.8,-209.7 -56.8,-219.5 0,-9.8 39.2,-31.4 88.2,-47 995.7,-321.5 1830.6,-862.4 2381.4,-1542.5 139.2,-172.5 343,-464.5 343,-492 0,-5.9 -62.7,-78.4 -139.2,-158.8 -233.2,-245 -339.1,-537 -299.9,-823.2 l 17.6,-133.3 1232.8,-5.9 c 938.8,-3.9 1236.8,2 1248.5,19.6 31.4,49 39.2,254.8 17.6,388.1 -33.3,198 -135.2,388.1 -295.9,558.6 -74.5,78.4 -135.2,149 -135.2,156.8 0,31.4 219.5,345 356.7,509.6 388.1,464.5 893.8,864.4 1464.1,1154.4 268.5,137.2 403.8,194 727.2,307.7 221.5,76.4 262.6,98 258.7,129.4 -7.8,41.2 -105.8,384.2 -113.7,395.9 -9.8,9.8 -305.8,-90.2 -576.3,-196 C 6899,4335.7 5970,3592.8 5483.9,2777.5 l -78.4,-135.2 -90.2,17.6 c -115.6,19.6 -515.5,19.6 -631.1,0 l -88.2,-17.6 -76.4,125.4 C 3957.3,3689 2963.6,4439.6 1764,4851.2 c -141.1,49 -264.6,88.2 -272.4,88.2 -5.9,0 -39.2,-90.1 -70.6,-199.9 z"
         id="path1347"
         style="fill:#1d8eea;fill-opacity:1;stroke:none;stroke-width:1242.75;stroke-opacity:1" />
      <path
         d="m 1425,2475.7 c -70.6,-94.1 -127.4,-180.3 -127.4,-192.1 0,-9.8 190.1,-154.8 421.4,-319.5 l 419.4,-299.9 V 1066.4 470.6 h 313.6 313.6 v -245 -245 h -441 -441 l -431.2,-539 c -237.2,-296 -439,-539 -448.8,-539 -7.8,0 -168.6,80.4 -352.8,176.4 -184.2,98 -339.1,176.4 -343,176.4 -11.8,0 -207.8,-366.5 -207.8,-388.1 0,-35.3 1021.2,-556.7 1044.7,-535.1 13.7,9.8 231.3,278.3 484.1,597.8 l 460.6,578.2 h 339.1 l 339.1,2 -5.9,-305.7 -5.9,-303.8 -509.6,-282.2 -509.6,-280.3 -5.9,-809.5 -5.9,-811.4 L 1031,-3812 c -382.2,-290 -693.8,-537 -693.8,-546.8 -2,-7.8 56.8,-94.1 129.4,-188.1 l 131.3,-172.5 78.4,56.8 c 45.1,31.4 397.9,301.9 786,601.7 l 705.6,544.9 5.9,786 3.9,787.9 278.3,152.9 c 152.9,84.3 286.2,156.8 294,158.8 9.8,3.9 15.7,-215.6 13.7,-490 -3.9,-546.8 7.8,-646.8 121.5,-972.1 188.2,-533.1 597.8,-989.8 1125,-1254.4 198,-98 493.9,-184.3 646.8,-188.2 l 137.2,-2 5.9,2338.3 3.9,2336.3 h 196 196 v -2344.2 -2346.1 l 145.1,11.7 c 176.4,11.8 509.6,121.5 719.3,233.3 590,313.6 1015.3,889.8 1146.6,1552.3 23.5,121.5 31.4,270.5 29.4,644.8 -2,268.5 3.9,484.1 13.7,480.2 7.9,-2 141.1,-74.5 294,-158.8 l 278.3,-154.8 2,-786 V -3518 l 754.6,-578.2 c 413.6,-317.5 768.3,-588 787.9,-601.7 29.4,-19.6 51,0 166.6,152.9 98,127.4 129.4,182.3 115.6,199.9 -11.8,13.7 -325.4,258.7 -697.8,542.9 l -676.2,519.4 -5.9,809.5 -5.9,809.5 -509.6,282.2 -509.6,280.3 -5.9,305.8 -5.9,305.7 h 335.2 333.2 l 474.3,-595.8 c 262.6,-329.3 482.1,-597.8 488,-597.8 23.5,-3.9 1036.8,531.2 1036.8,546.9 0,31.3 -201.9,393.9 -215.6,388.1 -7.9,-3.9 -170.5,-84.3 -358.7,-182.3 -188.2,-96.1 -346.9,-172.5 -352.8,-166.6 -3.9,5.9 -199.9,250.9 -433.2,544.9 l -427,533 h -439 -439.1 v 245 243 l 309.7,5.9 307.7,5.9 5.9,591.9 3.9,591.9 411.6,297.9 c 227.4,162.7 417.5,303.8 423.3,313.6 13.7,21.6 -237.1,362.6 -264.6,356.7 -9.8,-3.9 -250.9,-170.5 -531.2,-372.4 L 7391.1,1893.5 V 1417.2 941 H 5000 2608.8 v 476.3 476.3 l -503.7,360.6 c -276.4,199.9 -513.5,370.4 -527.2,378.3 -19.7,9.8 -64.7,-35.3 -152.9,-156.8 z"
         id="path1349"
         style="fill:#1d8eea;fill-opacity:1;stroke:none;stroke-width:1242.75;stroke-opacity:1" />
    </g>
    <g
       transform="matrix(3.8357305e-4,-6.5785796e-5,-6.5785796e-5,-3.8357305e-4,165.83418,837.48708)"
       id="g1357"
       style="fill:#1d8eea;fill-opacity:1;stroke:none;stroke-width:67.9861;stroke-opacity:1">
      <path
         d="m 1421,4739.5 c -31.4,-111.7 -56.8,-209.7 -56.8,-219.5 0,-9.8 39.2,-31.4 88.2,-47 995.7,-321.5 1830.6,-862.4 2381.4,-1542.5 139.2,-172.5 343,-464.5 343,-492 0,-5.9 -62.7,-78.4 -139.2,-158.8 -233.2,-245 -339.1,-537 -299.9,-823.2 l 17.6,-133.3 1232.8,-5.9 c 938.8,-3.9 1236.8,2 1248.5,19.6 31.4,49 39.2,254.8 17.6,388.1 -33.3,198 -135.2,388.1 -295.9,558.6 -74.5,78.4 -135.2,149 -135.2,156.8 0,31.4 219.5,345 356.7,509.6 388.1,464.5 893.8,864.4 1464.1,1154.4 268.5,137.2 403.8,194 727.2,307.7 221.5,76.4 262.6,98 258.7,129.4 -7.8,41.2 -105.8,384.2 -113.7,395.9 -9.8,9.8 -305.8,-90.2 -576.3,-196 C 6899,4335.7 5970,3592.8 5483.9,2777.5 l -78.4,-135.2 -90.2,17.6 c -115.6,19.6 -515.5,19.6 -631.1,0 l -88.2,-17.6 -76.4,125.4 C 3957.3,3689 2963.6,4439.6 1764,4851.2 c -141.1,49 -264.6,88.2 -272.4,88.2 -5.9,0 -39.2,-90.1 -70.6,-199.9 z"
         id="path1353"
         style="fill:#1d8eea;fill-opacity:1;stroke:none;stroke-width:1407.91;stroke-opacity:1" />
      <path
         d="m 1425,2475.7 c -70.6,-94.1 -127.4,-180.3 -127.4,-192.1 0,-9.8 190.1,-154.8 421.4,-319.5 l 419.4,-299.9 V 1066.4 470.6 h 313.6 313.6 v -245 -245 h -441 -441 l -431.2,-539 c -237.2,-296 -439,-539 -448.8,-539 -7.8,0 -168.6,80.4 -352.8,176.4 -184.2,98 -339.1,176.4 -343,176.4 -11.8,0 -207.8,-366.5 -207.8,-388.1 0,-35.3 1021.2,-556.7 1044.7,-535.1 13.7,9.8 231.3,278.3 484.1,597.8 l 460.6,578.2 h 339.1 l 339.1,2 -5.9,-305.7 -5.9,-303.8 -509.6,-282.2 -509.6,-280.3 -5.9,-809.5 -5.9,-811.4 L 1031,-3812 c -382.2,-290 -693.8,-537 -693.8,-546.8 -2,-7.8 56.8,-94.1 129.4,-188.1 l 131.3,-172.5 78.4,56.8 c 45.1,31.4 397.9,301.9 786,601.7 l 705.6,544.9 5.9,786 3.9,787.9 278.3,152.9 c 152.9,84.3 286.2,156.8 294,158.8 9.8,3.9 15.7,-215.6 13.7,-490 -3.9,-546.8 7.8,-646.8 121.5,-972.1 188.2,-533.1 597.8,-989.8 1125,-1254.4 198,-98 493.9,-184.3 646.8,-188.2 l 137.2,-2 5.9,2338.3 3.9,2336.3 h 196 196 v -2344.2 -2346.1 l 145.1,11.7 c 176.4,11.8 509.6,121.5 719.3,233.3 590,313.6 1015.3,889.8 1146.6,1552.3 23.5,121.5 31.4,270.5 29.4,644.8 -2,268.5 3.9,484.1 13.7,480.2 7.9,-2 141.1,-74.5 294,-158.8 l 278.3,-154.8 2,-786 V -3518 l 754.6,-578.2 c 413.6,-317.5 768.3,-588 787.9,-601.7 29.4,-19.6 51,0 166.6,152.9 98,127.4 129.4,182.3 115.6,199.9 -11.8,13.7 -325.4,258.7 -697.8,542.9 l -676.2,519.4 -5.9,809.5 -5.9,809.5 -509.6,282.2 -509.6,280.3 -5.9,305.8 -5.9,305.7 h 335.2 333.2 l 474.3,-595.8 c 262.6,-329.3 482.1,-597.8 488,-597.8 23.5,-3.9 1036.8,531.2 1036.8,546.9 0,31.3 -201.9,393.9 -215.6,388.1 -7.9,-3.9 -170.5,-84.3 -358.7,-182.3 -188.2,-96.1 -346.9,-172.5 -352.8,-166.6 -3.9,5.9 -199.9,250.9 -433.2,544.9 l -427,533 h -439 -439.1 v 245 243 l 309.7,5.9 307.7,5.9 5.9,591.9 3.9,591.9 411.6,297.9 c 227.4,162.7 417.5,303.8 423.3,313.6 13.7,21.6 -237.1,362.6 -264.6,356.7 -9.8,-3.9 -250.9,-170.5 -531.2,-372.4 L 7391.1,1893.5 V 1417.2 941 H 5000 2608.8 v 476.3 476.3 l -503.7,360.6 c -276.4,199.9 -513.5,370.4 -527.2,378.3 -19.7,9.8 -64.7,-35.3 -152.9,-156.8 z"
         id="path1355"
         style="fill:#1d8eea;fill-opacity:1;stroke:none;stroke-width:1407.91;stroke-opacity:1" />
    </g>
    <g
       transform="matrix(4.4689934e-4,1.7660461e-4,1.673468e-4,-4.3559312e-4,107.45709,576.62928)"
       id="g1363"
       style="opacity:1;fill:#ff7f02;fill-opacity:1;stroke:none;stroke-width:55.8761;stroke-opacity:1">
      <path
         d="m 1421,4739.5 c -31.4,-111.7 -56.8,-209.7 -56.8,-219.5 0,-9.8 39.2,-31.4 88.2,-47 995.7,-321.5 1830.6,-862.4 2381.4,-1542.5 139.2,-172.5 343,-464.5 343,-492 0,-5.9 -62.7,-78.4 -139.2,-158.8 -233.2,-245 -339.1,-537 -299.9,-823.2 l 17.6,-133.3 1232.8,-5.9 c 938.8,-3.9 1236.8,2 1248.5,19.6 31.4,49 39.2,254.8 17.6,388.1 -33.3,198 -135.2,388.1 -295.9,558.6 -74.5,78.4 -135.2,149 -135.2,156.8 0,31.4 219.5,345 356.7,509.6 388.1,464.5 893.8,864.4 1464.1,1154.4 268.5,137.2 403.8,194 727.2,307.7 221.5,76.4 262.6,98 258.7,129.4 -7.8,41.2 -105.8,384.2 -113.7,395.9 -9.8,9.8 -305.8,-90.2 -576.3,-196 C 6899,4335.7 5970,3592.8 5483.9,2777.5 l -78.4,-135.2 -90.2,17.6 c -115.6,19.6 -515.5,19.6 -631.1,0 l -88.2,-17.6 -76.4,125.4 C 3957.3,3689 2963.6,4439.6 1764,4851.2 c -141.1,49 -264.6,88.2 -272.4,88.2 -5.9,0 -39.2,-90.1 -70.6,-199.9 z"
         id="path1359"
         style="fill:#ff7f02;fill-opacity:1;stroke:none;stroke-width:1157.12;stroke-opacity:1" />
      <path
         d="m 1425,2475.7 c -70.6,-94.1 -127.4,-180.3 -127.4,-192.1 0,-9.8 190.1,-154.8 421.4,-319.5 l 419.4,-299.9 V 1066.4 470.6 h 313.6 313.6 v -245 -245 h -441 -441 l -431.2,-539 c -237.2,-296 -439,-539 -448.8,-539 -7.8,0 -168.6,80.4 -352.8,176.4 -184.2,98 -339.1,176.4 -343,176.4 -11.8,0 -207.8,-366.5 -207.8,-388.1 0,-35.3 1021.2,-556.7 1044.7,-535.1 13.7,9.8 231.3,278.3 484.1,597.8 l 460.6,578.2 h 339.1 l 339.1,2 -5.9,-305.7 -5.9,-303.8 -509.6,-282.2 -509.6,-280.3 -5.9,-809.5 -5.9,-811.4 L 1031,-3812 c -382.2,-290 -693.8,-537 -693.8,-546.8 -2,-7.8 56.8,-94.1 129.4,-188.1 l 131.3,-172.5 78.4,56.8 c 45.1,31.4 397.9,301.9 786,601.7 l 705.6,544.9 5.9,786 3.9,787.9 278.3,152.9 c 152.9,84.3 286.2,156.8 294,158.8 9.8,3.9 15.7,-215.6 13.7,-490 -3.9,-546.8 7.8,-646.8 121.5,-972.1 188.2,-533.1 597.8,-989.8 1125,-1254.4 198,-98 493.9,-184.3 646.8,-188.2 l 137.2,-2 5.9,2338.3 3.9,2336.3 h 196 196 v -2344.2 -2346.1 l 145.1,11.7 c 176.4,11.8 509.6,121.5 719.3,233.3 590,313.6 1015.3,889.8 1146.6,1552.3 23.5,121.5 31.4,270.5 29.4,644.8 -2,268.5 3.9,484.1 13.7,480.2 7.9,-2 141.1,-74.5 294,-158.8 l 278.3,-154.8 2,-786 V -3518 l 754.6,-578.2 c 413.6,-317.5 768.3,-588 787.9,-601.7 29.4,-19.6 51,0 166.6,152.9 98,127.4 129.4,182.3 115.6,199.9 -11.8,13.7 -325.4,258.7 -697.8,542.9 l -676.2,519.4 -5.9,809.5 -5.9,809.5 -509.6,282.2 -509.6,280.3 -5.9,305.8 -5.9,305.7 h 335.2 333.2 l 474.3,-595.8 c 262.6,-329.3 482.1,-597.8 488,-597.8 23.5,-3.9 1036.8,531.2 1036.8,546.9 0,31.3 -201.9,393.9 -215.6,388.1 -7.9,-3.9 -170.5,-84.3 -358.7,-182.3 -188.2,-96.1 -346.9,-172.5 -352.8,-166.6 -3.9,5.9 -199.9,250.9 -433.2,544.9 l -427,533 h -439 -439.1 v 245 243 l 309.7,5.9 307.7,5.9 5.9,591.9 3.9,591.9 411.6,297.9 c 227.4,162.7 417.5,303.8 423.3,313.6 13.7,21.6 -237.1,362.6 -264.6,356.7 -9.8,-3.9 -250.9,-170.5 -531.2,-372.4 L 7391.1,1893.5 V 1417.2 941 H 5000 2608.8 v 476.3 476.3 l -503.7,360.6 c -276.4,199.9 -513.5,370.4 -527.2,378.3 -19.7,9.8 -64.7,-35.3 -152.9,-156.8 z"
         id="path1361"
         style="fill:#ff7f02;fill-opacity:1;stroke:none;stroke-width:1157.12;stroke-opacity:1" />
    </g>
  </g>
</svg>
